<svg width="13" height="14" viewBox="0 0 13 14" fill="none" xmlns="http://www.w3.org/2000/svg">
<path d="M6.70401 12.1054V7.02004M6.70401 7.02004C6.52607 7.02004 6.35125 6.97347 6.197 6.88477L2.27976 4.47737M6.70401 7.02004C6.88194 7.02004 7.05676 6.97347 7.21101 6.88477L11.1283 4.47737M4.4156 3.08907L8.99241 5.70803M6.19547 11.9681C6.35008 12.0573 6.52547 12.1043 6.70401 12.1043C6.88254 12.1043 7.05793 12.0573 7.21254 11.9681L10.7723 9.93395C10.9267 9.84477 11.055 9.71654 11.1443 9.56212C11.2335 9.40771 11.2806 9.23254 11.2808 9.05418V4.98591C11.2806 4.80755 11.2335 4.63238 11.1443 4.47796C11.055 4.32355 10.9267 4.19532 10.7723 4.10614L7.21254 2.07201C7.05793 1.98274 6.88254 1.93575 6.70401 1.93575C6.52547 1.93575 6.35008 1.98274 6.19547 2.07201L2.63573 4.10614C2.48127 4.19532 2.35298 4.32355 2.26372 4.47796C2.17446 4.63238 2.12738 4.80755 2.1272 4.98591V9.05418C2.12738 9.23254 2.17446 9.40771 2.26372 9.56212C2.35298 9.71654 2.48127 9.84477 2.63573 9.93395L6.19547 11.9681Z" stroke="#6B7280" stroke-width="0.762801" stroke-linecap="round" stroke-linejoin="round"/>
</svg>
